<!DOCTYPE svg PUBLIC "-//W3C//DTD SVG 1.1//EN" "http://www.w3.org/Graphics/SVG/1.1/DTD/svg11.dtd">

<!-- Uploaded to: SVG Repo, www.svgrepo.com, Transformed by: SVG Repo Mixer Tools -->
<svg width="2rem" height="2rem" viewBox="0 0 24 24" fill="none" xmlns="http://www.w3.org/2000/svg">

<g id="SVGRepo_bgCarrier" stroke-width="0"/>

<g id="SVGRepo_tracerCarrier" stroke-linecap="round" stroke-linejoin="round"/>

<g id="SVGRepo_iconCarrier"> <path d="M18.48 18.5369H21M10.169 12.0441H21M12.801 5.55127L3 5.55127M21 5.55127H18.48M3 18.5369H12.801" stroke="#363853" stroke-width="1.5" stroke-linecap="round"/> <path d="M17.88 18.6C17.88 19.9255 16.8055 21 15.48 21C14.1545 21 13.08 19.9255 13.08 18.6C13.08 17.2745 14.1545 16.2 15.48 16.2C16.8055 16.2 17.88 17.2745 17.88 18.6Z" stroke="#ffbb00" stroke-width="1.5" stroke-linecap="round"/> <path d="M9.47999 12C9.47999 13.3255 8.40548 14.4 7.07999 14.4C5.75451 14.4 4.67999 13.3255 4.67999 12C4.67999 10.6745 5.75451 9.6 7.07999 9.6C8.40548 9.6 9.47999 10.6745 9.47999 12Z" stroke="#ffbb00" stroke-width="1.5" stroke-linecap="round"/> <path d="M17.88 5.4C17.88 6.72548 16.8055 7.8 15.48 7.8C14.1545 7.8 13.08 6.72548 13.08 5.4C13.08 4.07452 14.1545 3 15.48 3C16.8055 3 17.88 4.07452 17.88 5.4Z" stroke="#ffbb00" stroke-width="1.5" stroke-linecap="round"/> </g>

</svg>